<svg xmlns="http://www.w3.org/2000/svg" width="250" viewBox="0 0 512 512">
    <style>
        @media (prefers-color-scheme: dark) {
          rect.bg { fill: none; }
        }
        @media (prefers-color-scheme: light) {
          rect.bg { fill: #17191C; }
        }
    </style>
    <g clip-path="url(#clip0_7151_5134)">
    <rect class="bg" width="512" height="512" />
    <path d="M437.539 522.597L437.062 517.672L451.585 504.129C454.537 501.365 453.431 495.837 449.663 494.43L431.107 487.495L429.649 482.721L441.207 466.64C443.569 463.374 441.396 458.16 437.438 457.507L417.865 454.328L415.516 449.931L423.744 431.878C425.428 428.197 422.3 423.498 418.254 423.649L398.404 424.34L395.264 420.533L399.824 401.186C400.741 397.253 396.759 393.271 392.826 394.188L373.479 398.748L369.66 395.608L370.351 375.758C370.501 371.737 365.803 368.597 362.134 370.268L344.093 378.496L339.696 376.135L336.505 356.561C335.877 352.591 330.638 350.43 327.372 352.792L311.291 364.35L306.517 362.905L299.582 344.35C298.175 340.581 292.634 339.475 289.883 342.415L276.34 356.938L271.415 356.461L260.962 339.563C258.852 336.146 253.173 336.146 251.075 339.563L240.622 356.461L235.697 356.938L222.129 342.39C219.365 339.45 213.837 340.543 212.43 344.324L205.495 362.88L200.721 364.325L184.64 352.767C181.374 350.405 176.148 352.578 175.507 356.536L172.316 376.109L167.919 378.471L149.878 370.242C146.209 368.571 141.498 371.712 141.661 375.733L142.352 395.583L138.533 398.723L119.186 394.163C115.253 393.246 111.271 397.228 112.188 401.161L116.748 420.508L113.608 424.315L93.7577 423.624C89.7374 423.498 86.5966 428.172 88.2675 431.853L96.4965 449.906L94.1346 454.303L74.561 457.482C70.591 458.11 68.4301 463.349 70.792 466.615L82.3502 482.696L80.8929 487.47L62.3369 494.405C58.568 495.812 57.4624 501.353 60.4148 504.104L74.9379 517.647L74.4605 522.572L57.5629 533.025C54.1457 535.135 54.1457 540.814 57.5629 542.912L74.4605 553.365L74.9379 558.289L60.3771 571.883C57.4373 574.647 58.5303 580.175 62.2993 581.582L80.8552 588.517L82.3125 593.291L70.7543 609.372C68.405 612.638 70.5659 617.864 74.5233 618.505L94.0843 621.684L96.4462 626.081L88.2173 644.122C86.5464 647.79 89.6997 652.501 93.7074 652.351L113.557 651.66L116.698 655.479L112.138 674.826C111.221 678.746 115.203 682.741 119.135 681.811L138.483 677.251L142.302 680.392L141.611 700.242C141.46 704.262 146.159 707.403 149.828 705.732L167.868 697.503L172.266 699.865L175.457 719.426C176.085 723.408 181.324 725.557 184.59 723.22L200.671 711.637L205.445 713.094L212.38 731.65C213.787 735.419 219.328 736.524 222.079 733.572L235.622 719.049L240.547 719.551L251 736.449C253.11 739.841 258.764 739.866 260.887 736.449L271.339 719.551L276.264 719.049L289.807 733.572C292.571 736.524 298.099 735.419 299.506 731.65L306.441 713.094L311.215 711.637L327.296 723.22C330.563 725.569 335.789 723.408 336.43 719.426L339.621 699.865L344.018 697.503L362.059 705.732C365.727 707.403 370.426 704.275 370.275 700.242L369.584 680.392L373.391 677.251L392.738 681.811C396.671 682.729 400.653 678.746 399.736 674.826L395.176 655.479L398.316 651.66L418.166 652.351C422.187 652.514 425.327 647.79 423.657 644.122L415.428 626.081L417.777 621.684L437.351 618.505C441.333 617.877 443.506 612.651 441.119 609.372L429.561 593.291L431.019 588.517L449.575 581.582C453.344 580.162 454.449 574.634 451.497 571.883L436.974 558.34L437.451 553.415L454.349 542.962C457.766 540.852 457.778 535.198 454.349 533.075L437.539 522.597Z" fill="#F74C00"/>
    <ellipse cx="197.264" cy="427.256" rx="36.8364" ry="41.9173" fill="#17191C"/>
    <ellipse cx="314.125" cy="427.256" rx="36.8364" ry="41.9173" fill="#17191C"/>
    <path d="M230.597 485.777C236.497 497.197 246.672 504.739 258.235 504.739C271.41 504.739 282.782 494.948 288.083 480.787L230.597 485.777Z" fill="#17191C"/>
    <ellipse cx="210.602" cy="442.181" rx="15.8777" ry="20.6411" fill="white"/>
    <ellipse cx="326.827" cy="442.181" rx="15.8777" ry="20.6411" fill="white"/>
    <g clip-path="url(#clip1_7151_5134)">
    <path d="M186.081 188.249V206.978H186.604C191.603 199.815 197.647 194.293 204.66 190.413C211.674 186.459 219.807 184.519 228.91 184.519C237.64 184.519 245.624 186.235 252.862 189.592C260.1 192.95 265.547 198.994 269.352 207.5C273.456 201.456 279.052 196.084 286.066 191.458C293.08 186.832 301.437 184.519 311.062 184.519C318.374 184.519 325.164 185.414 331.432 187.205C337.7 188.995 342.997 191.831 347.474 195.785C351.951 199.74 355.384 204.814 357.92 211.156C360.383 217.499 361.651 225.109 361.651 234.063V326.661H323.672V248.24C323.672 243.614 323.523 239.212 323.15 235.108C322.777 231.004 321.807 227.422 320.24 224.438C318.598 221.379 316.285 218.991 313.151 217.2C310.017 215.409 305.764 214.514 300.467 214.514C295.094 214.514 290.767 215.559 287.484 217.573C284.2 219.662 281.589 222.274 279.724 225.632C277.858 228.915 276.59 232.645 275.993 236.899C275.396 241.077 275.023 245.33 275.023 249.583V326.661H237.044V249.061C237.044 244.957 236.969 240.928 236.745 236.899C236.596 232.869 235.775 229.213 234.432 225.781C233.089 222.423 230.85 219.662 227.717 217.648C224.583 215.633 220.031 214.589 213.913 214.589C212.122 214.589 209.734 214.962 206.824 215.782C203.914 216.603 201.004 218.095 198.244 220.334C195.483 222.572 193.095 225.781 191.155 229.959C189.215 234.138 188.245 239.659 188.245 246.449V326.735H150.266V188.249H186.081Z" fill="white"/>
    <path d="M72.2223 70.8792V441.121H98.86V450H62V62H98.86V70.8792H72.2223Z" fill="white"/>
    <path d="M439.785 441.121V70.8792H413.147V62H450.007V450H413.147V441.121H439.785Z" fill="white"/>
    </g>
    </g>
    <defs>
    <clipPath id="clip0_7151_5134">
    <rect width="512" height="512" fill="white"/>
    </clipPath>
    <clipPath id="clip1_7151_5134">
    <rect width="388" height="388" fill="white" transform="translate(62 62)"/>
    </clipPath>
    </defs>
</svg>
